<?xml version="1.0" encoding="UTF-8"?>
<svg id="Capa_1" data-name="Capa 1" xmlns="http://www.w3.org/2000/svg" viewBox="0 0 1080 1080">
  <defs>
    <style>
      .cls-1 {
        fill: #fff;
      }

      .cls-2 {
        fill: #af9a90;
      }

      .cls-3 {
        fill: #492c1d;
      }

      .cls-4 {
        fill: #0f766e;
      }

      .cls-5 {
        fill: #7c5f45;
      }
    </style>
  </defs>
  <rect class="cls-1" width="1080" height="1080" rx="64.89" ry="64.89"/>
  <g>
    <rect class="cls-1" x="490.39" y="273.22" width="98.88" height="39.59"/>
    <path class="cls-1" d="M539.83,165.97c-150.53,0-273,122.47-273,273s122.47,273,273,273,273-122.47,273-273-122.47-273-273-273Zm214.5,194.05v75.7c0,8.49-6.88,15.36-15.36,15.36h-20.09v137.16c0,26.03-21.18,47.21-47.21,47.21H407.99c-26.03,0-47.21-21.18-47.21-47.21v-137.16h-20.09c-8.49,0-15.36-6.88-15.36-15.36v-75.7c0-26.03,21.18-47.21,47.21-47.21h87.13v-54.95c0-8.49,6.88-15.36,15.36-15.36h129.61c8.49,0,15.36,6.88,15.36,15.36v54.95h87.13c26.03,0,47.21,21.18,47.21,47.21Z"/>
    <path class="cls-4" d="M539.83,100.53c-186.62,0-338.44,151.82-338.44,338.44,0,138.84,93.99,277.88,172.84,370.06,69.72,81.52,140.28,141.8,165.41,162.41,25.03-21.31,95.77-83.83,165.69-166.73,78.9-93.55,172.94-232.94,172.94-365.75,0-186.62-151.82-338.44-338.44-338.44Zm214.77,553.21c-57.37,57.37-133.64,88.96-214.77,88.96s-157.4-31.59-214.77-88.96c-57.37-57.37-88.96-133.64-88.96-214.77s31.59-157.4,88.96-214.77c57.37-57.37,133.64-88.96,214.77-88.96s157.4,31.59,214.77,88.96c57.37,57.37,88.96,133.64,88.96,214.77s-31.59,157.4-88.96,214.77Z"/>
    <path d="M539.83,135.24c-81.13,0-157.4,31.59-214.77,88.96-57.37,57.37-88.96,133.64-88.96,214.77s31.59,157.4,88.96,214.77c57.37,57.37,133.64,88.96,214.77,88.96s157.4-31.59,214.77-88.96c57.37-57.37,88.96-133.64,88.96-214.77s-31.59-157.4-88.96-214.77c-57.37-57.37-133.64-88.96-214.77-88.96Zm0,576.72c-150.53,0-273-122.47-273-273s122.47-273,273-273,273,122.47,273,273-122.47,273-273,273Z"/>
    <path d="M539.83,69.8c-98.61,0-191.31,38.4-261.04,108.13-69.73,69.73-108.13,162.43-108.13,261.04,0,65.91,19.17,136.78,56.97,210.66,29.89,58.42,71.49,118.92,123.63,179.82,88.45,103.32,175.5,171.18,179.16,174.01l9.61,7.45,9.46-7.64c.9-.72,90.61-73.63,178.98-178.33,52.1-61.72,93.66-122.37,123.53-180.25,37.82-73.27,56.99-142.49,56.99-205.72,0-98.61-38.4-191.31-108.13-261.04-69.73-69.73-162.43-108.13-261.04-108.13Zm165.5,734.92c-69.92,82.9-140.66,145.42-165.69,166.73-25.13-20.61-95.69-80.89-165.41-162.41-78.85-92.19-172.84-231.22-172.84-370.06,0-186.62,151.82-338.44,338.44-338.44s338.44,151.82,338.44,338.44c0,132.81-94.05,272.2-172.94,365.75Z"/>
    <path class="cls-5" d="M584.15,451.08v36.05c0,8.49-6.88,15.36-15.36,15.36h-57.91c-8.49,0-15.36-6.88-15.36-15.36v-36.05h-104v137.16c0,9.09,7.39,16.48,16.48,16.48h263.68c9.09,0,16.48-7.39,16.48-16.48v-137.16h-104Z"/>
    <path class="cls-3" d="M707.13,343.54H372.54c-9.09,0-16.48,7.39-16.48,16.48v60.34h139.45v-25.41c0-8.49,6.88-15.36,15.36-15.36h57.91c8.49,0,15.36,6.88,15.36,15.36v25.41h139.45v-60.34c0-9.09-7.39-16.48-16.48-16.48Z"/>
    <path d="M620,312.81v-54.95c0-8.49-6.88-15.36-15.36-15.36h-129.61c-8.49,0-15.36,6.88-15.36,15.36v54.95h-87.13c-26.03,0-47.21,21.18-47.21,47.21v75.7c0,8.49,6.88,15.36,15.36,15.36h20.09v137.16c0,26.03,21.18,47.21,47.21,47.21h263.68c26.03,0,47.21-21.18,47.21-47.21v-137.16h20.09c8.49,0,15.36-6.88,15.36-15.36v-75.7c0-26.03-21.18-47.21-47.21-47.21h-87.13Zm103.6,107.54h-139.45v-25.41c0-8.49-6.88-15.36-15.36-15.36h-57.91c-8.49,0-15.36,6.88-15.36,15.36v25.41h-139.45v-60.34c0-9.09,7.39-16.48,16.48-16.48h334.59c9.09,0,16.48,7.39,16.48,16.48v60.34Zm-51.93,184.36H407.99c-9.09,0-16.48-7.39-16.48-16.48v-137.16h104v36.05c0,8.49,6.88,15.36,15.36,15.36h57.91c8.49,0,15.36-6.88,15.36-15.36v-36.05h104v137.16c0,9.09-7.39,16.48-16.48,16.48Zm-118.25-194.41v61.45h-27.18v-61.45h27.18Zm-63.03-137.09h98.88v39.59h-98.88v-39.59Z"/>
    <rect class="cls-2" x="526.24" y="410.31" width="27.18" height="61.45"/>
  </g>
</svg>