<svg width="114" height="114" viewBox="0 0 114 114" fill="none" xmlns="http://www.w3.org/2000/svg">
<path opacity="0.3" fill-rule="evenodd" clip-rule="evenodd" d="M13.2674 93.5634C14.3443 94.8484 15.4868 96.0971 16.6947 97.3051C17.9027 98.5131 19.1514 99.6555 20.4365 100.732L13.2674 93.5634ZM29.4412 106.912L7.08788 84.5586C6.05013 82.6813 5.12633 80.7578 4.31648 78.7983L35.2016 109.683C33.2421 108.873 31.3186 107.95 29.4412 106.912ZM39.6517 111.308C41.0185 111.744 42.3984 112.126 43.7883 112.456L1.54385 70.2116C1.87357 71.6015 2.2561 72.9814 2.69144 74.3481L39.6517 111.308ZM0.82007 66.6626L47.3372 113.18C48.491 113.377 49.6496 113.539 50.8115 113.665L0.334715 63.1884C0.460862 64.3502 0.622647 65.5089 0.82007 66.6626ZM0.0843574 60.1129L53.887 113.915C54.9106 113.971 55.9355 113.999 56.9604 114L-0.00016487 57.0394C0.000539825 58.0643 0.0287141 59.0892 0.0843574 60.1129ZM0.0644095 54.2788L59.721 113.935C60.6516 113.891 61.5813 113.824 62.5092 113.735L0.265083 51.4906C0.175503 52.4185 0.108612 53.3483 0.0644095 54.2788ZM0.565515 48.9659L65.0339 113.434C65.8917 113.313 66.7473 113.172 67.5999 113.011L0.988518 46.4C0.827961 47.2526 0.686961 48.1081 0.565515 48.9659ZM1.47891 44.0652L69.9346 112.521C70.732 112.336 71.5262 112.134 72.3166 111.914L2.08588 41.6833C1.86621 42.4736 1.66389 43.2678 1.47891 44.0652ZM2.73708 39.5093L74.4905 111.263C75.2357 111.023 75.977 110.768 76.7137 110.497L3.50283 37.2861C3.23186 38.0229 2.97661 38.7641 2.73708 39.5093ZM4.29519 35.2533L78.7465 109.705C79.4451 109.417 80.1392 109.114 80.8282 108.797L5.2024 33.1716C4.88552 33.8606 4.58312 34.5547 4.29519 35.2533ZM6.1222 31.2662L82.7336 107.878C83.3896 107.546 84.0406 107.2 84.6861 106.841L7.15863 29.3138C6.79965 29.9592 6.45418 30.6102 6.1222 31.2662ZM8.19607 27.526L86.4738 105.804C87.0901 105.431 87.701 105.045 88.3059 104.647L9.35291 25.694C8.95457 26.2989 8.56896 26.9097 8.19607 27.526ZM10.5009 24.0168L89.983 103.499C90.5617 103.087 91.1345 102.664 91.7009 102.228L11.7719 22.2989C11.3361 22.8653 10.9125 23.4381 10.5009 24.0168ZM13.0255 20.7273L93.2725 100.974C93.8151 100.526 94.3513 100.066 94.8808 99.5937L14.4061 19.119C13.9343 19.6485 13.4741 20.1847 13.0255 20.7273ZM15.7618 17.6495L96.3503 98.238C96.6712 97.9315 96.9895 97.6205 97.3049 97.3051C97.4888 97.1212 97.6711 96.9365 97.8519 96.7507L17.2491 16.1479C17.0634 16.3287 16.8786 16.5111 16.6947 16.6949C16.3793 17.0104 16.0683 17.3286 15.7618 17.6495ZM18.705 14.7786L99.2212 95.2949C99.6978 94.7702 100.163 94.2389 100.616 93.7011L20.2987 13.3835C19.7609 13.837 19.2296 14.3021 18.705 14.7786ZM21.8563 12.1159L101.884 92.1435C102.325 91.5822 102.753 91.0144 103.17 90.4407L23.5592 10.8299C22.9854 11.2465 22.4176 11.6752 21.8563 12.1159ZM25.2218 9.66733L104.332 88.778C104.736 88.1784 105.127 87.5729 105.505 86.9617L27.0381 8.4947C26.4269 8.87294 25.8214 9.26382 25.2218 9.66733ZM28.8105 7.44195L106.558 85.1893C106.922 84.5495 107.273 83.9041 107.611 83.2536L30.7463 6.38879C30.0957 6.72646 29.4504 7.07751 28.8105 7.44195ZM32.6352 5.45258L108.547 81.3646C108.87 80.6817 109.178 79.9936 109.473 79.301L34.6988 4.52727C34.0062 4.82138 33.3181 5.12981 32.6352 5.45258ZM36.7137 3.71697L110.283 77.2861C110.56 76.5561 110.822 75.8216 111.069 75.083L38.9168 2.93123C38.1782 3.17761 37.4437 3.43953 36.7137 3.71697ZM41.0707 2.25995L111.74 72.9291C111.967 72.1464 112.177 71.3598 112.37 70.5698L43.43 1.63024C42.64 1.82304 41.8534 2.03295 41.0707 2.25995ZM45.7416 1.11666L112.883 68.2583C113.052 67.4147 113.202 66.5681 113.333 65.7191L48.2807 0.66691C47.4317 0.797614 46.5851 0.947532 45.7416 1.11666ZM50.7775 0.338587L113.661 63.2223C113.761 62.3055 113.839 61.3868 113.895 60.467L53.5328 0.10489C52.613 0.160597 51.6943 0.238499 50.7775 0.338587ZM56.2578 0.00480155L113.995 57.742C114.008 56.732 113.994 55.7217 113.954 54.7122L59.2876 0.0456469C58.2782 0.00534912 57.2679 -0.0082633 56.2578 0.00480155ZM62.3138 0.246742L113.753 51.686C113.647 50.5462 113.507 49.4091 113.332 48.2762L65.7237 0.667637C64.5907 0.493125 63.4536 0.352832 62.3138 0.246742ZM69.1936 1.31239L112.687 44.8062C112.393 43.4567 112.05 42.1158 111.657 40.7864L73.2134 2.34325C71.884 1.95017 70.5431 1.60656 69.1936 1.31239ZM77.4905 3.79514L110.205 36.5094C109.502 34.6806 108.701 32.8807 107.802 31.1178L82.882 6.19775C81.1191 5.29918 79.3193 4.4983 77.4905 3.79514ZM90.0788 10.5694L103.43 23.921C101.621 21.3876 99.5791 18.9691 97.3049 16.6949C95.0307 14.4207 92.6122 12.3789 90.0788 10.5694Z" fill="url(#paint0_linear_7_829)"/>
<defs>
<linearGradient id="paint0_linear_7_829" x1="16.6947" y1="16.6949" x2="98.7191" y2="98.7193" gradientUnits="userSpaceOnUse">
<stop stop-color="white"/>
<stop offset="1" stop-color="white" stop-opacity="0"/>
</linearGradient>
</defs>
</svg>
