<svg width="176" height="149" viewBox="0 0 176 149" fill="none" xmlns="http://www.w3.org/2000/svg">
<g opacity="0.2" clip-path="url(#clip0_68_119)">
<path fill-rule="evenodd" clip-rule="evenodd" d="M0.771869 125.729C27.0171 112.8 40.1395 97.6096 40.1395 80.1562C28.953 78.8633 19.7028 74.2846 12.3885 66.4197C5.0743 58.5549 1.41724 49.4512 1.41724 39.1085C1.41724 28.1193 4.96675 18.854 12.0659 11.3124C19.165 3.77075 28.0925 -9.53674e-07 38.8488 -9.53674e-07C50.8958 -9.53674e-07 61.3292 4.90198 70.1493 14.7061C78.9694 24.5102 83.3794 36.415 83.3794 50.4208C83.3794 92.4384 59.9312 125.298 13.0339 149L0.771869 125.729ZM93.3925 125.729C119.853 112.8 133.083 97.6096 133.083 80.1562C121.681 78.8633 112.323 74.2846 105.009 66.4197C97.6949 58.5549 94.0378 49.4512 94.0378 39.1085C94.0378 28.1193 97.6411 18.854 104.848 11.3124C112.054 3.77075 121.036 -9.53674e-07 131.792 -9.53674e-07C143.839 -9.53674e-07 154.219 4.90198 162.931 14.7061C171.644 24.5102 176 36.415 176 50.4208C176 92.4384 152.659 125.298 105.977 149L93.3925 125.729Z" fill="white"/>
</g>
<defs>
<clipPath id="clip0_68_119">
<rect width="176" height="149" fill="white" transform="translate(176 149) rotate(-180)"/>
</clipPath>
</defs>
</svg>
